<?xml version="1.0" encoding="UTF-8"?>
<svg width="341px" height="341px" viewBox="0 0 341 341" version="1.1" xmlns="http://www.w3.org/2000/svg" xmlns:xlink="http://www.w3.org/1999/xlink">
    <title>rr</title>
    <g id="rr" stroke="none" stroke-width="1" fill="none" fill-rule="evenodd" stroke-linecap="round" stroke-linejoin="bevel">
        <g id="Group-2" transform="translate(6.653556, 6.653556)" stroke="#131415" stroke-width="16">
            <g id="Group" transform="translate(163.846444, 163.846444) rotate(-180.000000) translate(-163.846444, -163.846444) translate(74.846444, 41.846444)">
                <path d="M171.975301,88.5077255 C159.444271,54.2714462 136.311649,60.2049618 116.768144,60.7313559 C93.3105398,61.363174 64.424872,76.5021152 60.9234741,159.719312 C58.6352918,214.102196 83.3612741,239.983259 109.442193,242.841468 C135.523112,245.699677 178,238.778035 178,194.579621" id="Path" transform="translate(119.388051, 151.709537) rotate(-180.000000) translate(-119.388051, -151.709537) "></path>
                <path d="M111.410746,29.3027637 C98.8797153,-4.93351564 75.747094,1 56.2035884,1.52639402 C32.7459845,2.15821221 3.86031662,17.2971534 0.358918699,100.51435 C-1.92926359,154.897234 22.7967187,180.778297 48.8776377,183.636506 C74.9585567,186.494715 117.435445,179.573073 117.435445,135.374659" id="Path"></path>
            </g>
        </g>
    </g>
</svg>